<svg xmlns="http://www.w3.org/2000/svg" viewBox="0 0 24 24" width="24" height="24">
  <path d="M9.0076 23.9997l-.0244-.061-.0182-.5619-.0182-.5619.0758-.6811.1617-.6469.0919-.2554.0919-.2554.3268-.6128.1636-.2383.2903-.3906.4242-.4535.7491-.5593 1.0215-.6103 1.1919-.7061.4428-.2823.6128-.3935.3306-.3158.2562-.3422.3667-.1161.5107-.3007.5206-.4456.3307-.4465.1943-.3577.1948-.5546.0328-.2164.0328-.2164.0437-.4767-.105-.6984-.2837-.5953-.5368-.5375-.0394.0394.2122.6588.1012.5801-.0005.7912-.0686.4428-.1067.2894-.1067.2894-.3374.5107-.3847.3971-.3745.2845-.1958.1257-.0292-.0461-.0292-.0461-.0005-.0263-.0005-.0263-.2807-.3045-.2131-.1295-.5448-.1479-.681-.0369-.6128.074-1.0556.1682-.8171.1721-.7832.1773-.7149.1656-.7832.1727-.4086.0636-.0789.0014.2491.4854v.5871l-.0287.1022-.0287.1022-.1887-.5604-.2743-.3633-.6816-.3583-.3969-.4131-.1983.4262-.0171.2395-.0171.2395-.1053-.1973-.014-.3064-.014-.3064.0744-.2213.0744-.2213.2666-.4849.2698-.2983.0037.3064.0411.1532h.0472l.291-.4395.3808-.3777h.0513l.0423.1888.0423.1888.0556.0344.2198-.2588.3901-.3985.0869.029.1007.3865.0717-.0009.3302-.3765.3743-.2765.0287.029.0287.0291.0106.1702.0106.1702.1702-.0105.7832-.213.7832-.0401.5788.0771.1789.0396.1029-.5586-.0927-.4428-.1674-.2855-.3161-.2913-.4549-.2131-.3745-.0013-.3081.1469-.3728.2557-.4123.4133-.2469.3053-.0445-.0445-.019-.21-.019-.21-.1857.2982-.3564.3205h-.084l.0266-.1617.0266-.1617.002-.0426.002-.0426-.0511.002-.1173.2049-.1173.2049-.3242.3032h-.105v-.4045l-.0681-.0421v.08l-.3129.4707-.2659.1356-.0048-.0092-.0048-.0092-.0378-.318-.0378-.318-.2724.4295-.4435.4618h-.0843v-.5674l-.0398-.0398-.3804.1309-.2778.1638-.09.0967-.09.0967-.2052.4086-.0399-.1702-.0305-.1362-.0305-.1362-.1075-.3916-.1075-.3916-.2772-.8171-.3297-.6639h.1706l.2179.1114.2556.2291h.066l.1514-.3574.2654-.5089.2096-.2742.3119-.3277.3837-.2342.2293-.0443-.2473.2317-.1784.3553v.3768h.0191l.5087-.4981.6128-.4092.6128-.3419.7149-.3422.5107-.2172.3745-.1562.316-.1148.3075-.2037.0905-.1186.0905-.1186.166-.3626.0221-.3119.0221-.3119-.1498-.004-.1498-.004-.2043-.0444.5448-.1614.5788-.2321.5083-.2788.3429-.2391.1702-.1312.2385-.2158.4852-.3876.7065-.4686.8853-.4847.7149-.3152.1362-.0612.4767-.1778.6469-.1914.681-.1395.4767-.0464-.0346.0373-.5781.2356-.7023.3203-.6596.3424-.5382.3785-.2538.1316-.2386.2158-.4853.3876-.7065.4686-.8853.4847-.7149.3152-.1362.0612-.4767.1778-.6469.1914-.681.1395-.4767.0463.0346-.0373.5781-.2356.7023-.3203.6596-.3424.5382-.3785.2538-.1316.2386-.2158.4853-.3876.7065-.4686.8853-.4847.7149-.3152.1362-.0612.4767-.1778.6469-.1914.681-.1395.4767-.0463-.0346.0373-.5781.2356-.7023.3203-.6596.3424-.5382.3785-.5104.3785-1.0109.948v.0554l.9703-.3938.6128-.2067.681-.2026.4428-.1118.681-.1374.9192-.1346.6577-.1647.602-.2121.5107-.2448.6687-.4333.6824-.6622.3745-.4975.3538-.6944.0691-.2043.1154.502-.0007.2596-.0007.2596-.0651.2942-.0651.2942-.2357.4669-.4078.5448-.6059.5788-.1342.1033-.3405.23-.5531.2923-.5365.2019-.6392.1786-.4844.0646-1.2938.178-.6144.1964-.0673.0509-.0673.0509.1492.0022 1.4513-.1807 2.9621-.01.5448-.0873.5788-.1338.5624-.1999.2594-.1323.3528-.2788v.1108l-.1739.3461-.23.3105-.4302.4174-.3705.2501-.4927.237-.4986.171-.8171.1606-.4428.0437-1.8383.0608-.2383.0656-.2033.046.1155.0646.8369.1651.5788.0704.8171.0748.6167.1263.5303.2416.4758.3164.4879.4883.3637.5268.327.6951.0722.235.0722.235-.0097.0097-.0097.0097-.4071-.3733-.4428-.3621-.4428-.3057-.5448-.3065-.5448-.2068-.4981-.0824-.028.028.5563.4044.692.681.3415.4428.2797.4585.23.4607.209.5788.0715.3097.0715.3097.0329.2861.0329.2861-.00002.3915-.00002.3915-.0347.3064-.0347.3064-.1694.8061-.0704.2268-.0704.2268-.0976.2724-.0976.2724-.2049.5385-.0776.0744.0213-.1702.0213-.1702.0194-.8546.0194-.8546-.0871-.4739-.0871-.4739-.089-.2375-.089-.2375-.0632-.0647-.0066.0306-.0552 1.6682-.1722 1.0894-.1787.7149-.1684.4767-.1835.4428-.1332.2383-.1332.2383-.2062.2724-.4143.4313-.2894.2018v-.0628l.1075-.2979.193-.6469.1725-.681.0377-.2043.065-.7832-.0246-.1152-.0246-.1152-.1627.4688-.2012.4086-.4477.681-.9235.9193-.7149.4731-.2383.151-.6476.3062-.3738.1461-.5788.2088-.4086.1188-.8171.2494-.7149.208-.4086.1232-.7149.2185-.8853.3097-.4986.228h-.0217l-.5691.3199-.5772.4119-.6707.6433-.4122.5143-.0507.0199-.0244-.061zm4.3566-14.4571l.1702-.0462.3966-.1775-.0431-.0697h-.123l-.1624-.126-.4296-.1915-.5237-.0059-.2383.1384-.0851.1639-.0851.1639-.1873.0977v.0628l.2213.0362.2043.0294.7149-.0293z"/>
</svg>