<svg xmlns="http://www.w3.org/2000/svg" viewBox="0 0 24 24" width="24" height="24">
  <path d="M0.085 22.86a0.6 0.6 0 0 0 1.1 0.3 11.135 11.135 0 0 1 2.925-3 4.265 4.265 0 0 0 1.075 2.5 0.6 0.6 0 0 0 1.025-0.3 5.265 5.265 0 0 1 1.945-2.875c0.4 0.335 1.265 1.38 1.605 4.085a0.6 0.6 0 0 0 0.9 0.455c0.77-0.455 2.525-1.61 3-3.32a11.905 11.905 0 0 1 1.205 1.745 0.595 0.595 0 0 0 0.565 0.31 0.6 0.6 0 0 0 0.5-0.375 8.785 8.785 0 0 0 0.64-2.5 16.86 16.86 0 0 0 2.185 0.29 0.605 0.605 0 0 0 0.555-0.955c-1.29-1.05-3.555-4.265-3.43-8.96 2.22 0 2.875 0.675 3.615 0.675a1.925 1.925 0 0 0 1.26-0.6 2.28 2.28 0 0 1 0.35 1.355 0.4 0.4 0 0 0 0.27 0.43 0.405 0.405 0 0 0 0.5-0.18c1.84-3.215 0.615-5.035-0.47-6.115-0.66-0.66-1.795-1-2.815-1.16-0.35-1.37-1.755-4.585-7.115-4.585-5.615 0-9.285 4.31-9.955 5.17a0.5 0.5 0 0 0 0.5 0.805l0.335-0.065a4.97 4.97 0 0 0-0.97 1.39 0.5 0.5 0 0 0 0.585 0.685l0.605-0.105A35 35 0 0 0 0.085 22.86z"/>
</svg>